<svg version="1.1" width="250" height="250" xmlns="http://www.w3.org/2000/svg">
    <clipPath id="day-shift">
        <polygon points="0 190, 125 125, 380 250, 0 250" />
    </clipPath>
    <circle cx="125" cy="125" r="125" fill="#F5D042" clip-path="url(#day-shift)" />
    <text x="119" y="15" font-weight="bold">0</text>
    <text x="115" y="242" font-weight="bold">12</text>
    <text x="145" y="20" font-weight="bold">1</text>
    <text x="83" y="237" font-weight="bold">13</text>
    <text x="173" y="31" font-weight="bold">2</text>
    <text x="55" y="225" font-weight="bold">14</text>
    <text x="197" y="47" font-weight="bold">3</text>
    <text x="33" y="205" font-weight="bold">15</text>
    <text x="215" y="71" font-weight="bold">4</text>
    <text x="15" y="182" font-weight="bold">16</text>
    <text x="227" y="97" font-weight="bold">5</text>
    <text x="5" y="153" font-weight="bold">17</text>
    <text x="233" y="125" font-weight="bold">6</text>
    <text x="0" y="125" font-weight="bold">18</text>
    <text x="230" y="153" font-weight="bold">7</text>
    <text x="7" y="100" font-weight="bold">19</text>
    <text x="220" y="180" font-weight="bold">8</text>
    <text x="17" y="77" font-weight="bold">20</text>
    <text x="200" y="205" font-weight="bold">9</text>
    <text x="33" y="55" font-weight="bold">21</text>
    <text x="175" y="225" font-weight="bold">10</text>
    <text x="55" y="35" font-weight="bold">22</text>
    <text x="147" y="237" font-weight="bold">11</text>
    <text x="83" y="23" font-weight="bold">23</text>
</svg>